<svg width="45" height="45" viewBox="0 0 45 45" fill="none" xmlns="http://www.w3.org/2000/svg">
<circle cx="22.5" cy="22.5" r="21.5" fill="#FF005C" stroke="#F7F7F7" stroke-width="2"/>
<path d="M20.39 29.541V18.6319H23.863V29.541H20.39ZM22.1301 17.3606C21.6424 17.3606 21.2233 17.1996 20.873 16.8777C20.5226 16.551 20.3474 16.158 20.3474 15.6987C20.3474 15.2441 20.5226 14.8559 20.873 14.5339C21.2233 14.2072 21.6424 14.0439 22.1301 14.0439C22.6225 14.0439 23.0415 14.2072 23.3872 14.5339C23.7375 14.8559 23.9127 15.2441 23.9127 15.6987C23.9127 16.158 23.7375 16.551 23.3872 16.8777C23.0415 17.1996 22.6225 17.3606 22.1301 17.3606Z" fill="white"/>
</svg>
