<svg width="70" height="70" viewBox="0 0 70 70" fill="none" xmlns="http://www.w3.org/2000/svg">
<g filter="url(#filter0_d_31_1162)">
<circle cx="35" cy="35" r="25" fill="#FF005C"/>
</g>
<path d="M40.6691 25.475C40.6761 25.4792 40.6831 25.4835 40.6901 25.4878M40.6901 25.4878C43.8729 27.435 46 30.9666 46 35C46 40.5983 41.9022 45.2297 36.5714 46M40.6901 25.4878V31.0312M40.6901 25.4878V25.4836H46M29.3309 44.525L29.3099 44.5122M29.3099 44.5122C26.1271 42.565 24 39.0334 24 35C24 29.4017 28.0978 24.7703 33.4286 24M29.3099 44.5122L29.3099 38.9688M29.3099 44.5122V44.5164H24" stroke="white" stroke-width="3" stroke-linecap="round" stroke-linejoin="round"/>
<defs>
<filter id="filter0_d_31_1162" x="0" y="0" width="70" height="70" filterUnits="userSpaceOnUse" color-interpolation-filters="sRGB">
<feFlood flood-opacity="0" result="BackgroundImageFix"/>
<feColorMatrix in="SourceAlpha" type="matrix" values="0 0 0 0 0 0 0 0 0 0 0 0 0 0 0 0 0 0 127 0" result="hardAlpha"/>
<feOffset/>
<feGaussianBlur stdDeviation="5"/>
<feComposite in2="hardAlpha" operator="out"/>
<feColorMatrix type="matrix" values="0 0 0 0 0 0 0 0 0 0 0 0 0 0 0 0 0 0 0.25 0"/>
<feBlend mode="normal" in2="BackgroundImageFix" result="effect1_dropShadow_31_1162"/>
<feBlend mode="normal" in="SourceGraphic" in2="effect1_dropShadow_31_1162" result="shape"/>
</filter>
</defs>
</svg>
