<svg width="11" height="19" viewBox="0 0 11 19" fill="none" xmlns="http://www.w3.org/2000/svg">
<mask id="path-1-outside-1_114_1174" maskUnits="userSpaceOnUse" x="0" y="0" width="11" height="19" fill="black">
<rect fill="white" width="11" height="19"/>
<path fill-rule="evenodd" clip-rule="evenodd" d="M5.20588 17C6.60784 14.8667 9.41177 8.45097 9.41177 5.8C9.41177 3.14903 7.52873 1 5.20588 1C2.88304 1 1 3.14903 1 5.8C1 8.45097 3.80392 14.8667 5.20588 17ZM5.20665 7.40012C5.98093 7.40012 6.60861 6.68378 6.60861 5.80012C6.60861 4.91646 5.98093 4.20012 5.20665 4.20012C4.43237 4.20012 3.80469 4.91646 3.80469 5.80012C3.80469 6.68378 4.43237 7.40012 5.20665 7.40012Z"/>
</mask>
<path fill-rule="evenodd" clip-rule="evenodd" d="M5.20588 17C6.60784 14.8667 9.41177 8.45097 9.41177 5.8C9.41177 3.14903 7.52873 1 5.20588 1C2.88304 1 1 3.14903 1 5.8C1 8.45097 3.80392 14.8667 5.20588 17ZM5.20665 7.40012C5.98093 7.40012 6.60861 6.68378 6.60861 5.80012C6.60861 4.91646 5.98093 4.20012 5.20665 4.20012C4.43237 4.20012 3.80469 4.91646 3.80469 5.80012C3.80469 6.68378 4.43237 7.40012 5.20665 7.40012Z" fill="#FF005C"/>
<path d="M5.20588 17L4.37019 17.5492L5.20588 18.8209L6.04158 17.5492L5.20588 17ZM8.41177 5.8C8.41177 6.32141 8.26764 7.11208 7.98944 8.0964C7.71667 9.06155 7.33497 10.1449 6.90542 11.2244C6.03957 13.4003 5.01726 15.4662 4.37019 16.4508L6.04158 17.5492C6.79647 16.4005 7.8771 14.1919 8.7637 11.9638C9.21038 10.8413 9.61728 9.6904 9.91405 8.64035C10.2054 7.60948 10.4118 6.60408 10.4118 5.8H8.41177ZM5.20588 2C6.85641 2 8.41177 3.5731 8.41177 5.8H10.4118C10.4118 2.72496 8.20105 0 5.20588 0V2ZM2 5.8C2 3.5731 3.55536 2 5.20588 2V0C2.21072 0 0 2.72496 0 5.8H2ZM6.04158 16.4508C5.39451 15.4662 4.3722 13.4003 3.50634 11.2244C3.0768 10.1449 2.6951 9.06155 2.42232 8.0964C2.14413 7.11208 2 6.32141 2 5.8H0C0 6.60408 0.206363 7.60948 0.497713 8.64035C0.794484 9.6904 1.20139 10.8413 1.64807 11.9638C2.53467 14.1919 3.6153 16.4005 4.37019 17.5492L6.04158 16.4508ZM5.60861 5.80012C5.60861 6.00643 5.53526 6.17044 5.44586 6.27246C5.35819 6.37253 5.27135 6.40012 5.20665 6.40012V8.40012C6.65325 8.40012 7.60861 7.10785 7.60861 5.80012H5.60861ZM5.20665 5.20012C5.27135 5.20012 5.35819 5.22771 5.44586 5.32778C5.53526 5.4298 5.60861 5.59381 5.60861 5.80012H7.60861C7.60861 4.49239 6.65325 3.20012 5.20665 3.20012V5.20012ZM4.80469 5.80012C4.80469 5.59381 4.87803 5.4298 4.96743 5.32778C5.05511 5.22771 5.14195 5.20012 5.20665 5.20012V3.20012C3.76005 3.20012 2.80469 4.49239 2.80469 5.80012H4.80469ZM5.20665 6.40012C5.14195 6.40012 5.05511 6.37253 4.96743 6.27246C4.87803 6.17044 4.80469 6.00643 4.80469 5.80012H2.80469C2.80469 7.10785 3.76005 8.40012 5.20665 8.40012V6.40012Z" fill="white" mask="url(#path-1-outside-1_114_1174)"/>
</svg>
