<svg width="56" height="39" viewBox="0 0 56 39" fill="none" xmlns="http://www.w3.org/2000/svg">
<path fill-rule="evenodd" clip-rule="evenodd" d="M55.4436 20.536C55.1686 20.7545 54.8548 20.9425 54.502 21.1001L56 21.1688V25.1032L48.2605 34.2809L56 34.1182L55.9997 38.7393L43.2157 38.7396V34.1182L50.7819 24.8103H46.6667L46.5419 24.8352C44.7836 25.1858 42.8526 25.5152 41.6316 26.8281V26.8281C40.8647 27.6309 40.4813 28.8459 40.4813 30.4732V38.7396H35.7591V21.3822H35.7449V3.87288H40.2552V6.18359C40.8203 5.33741 41.577 4.69736 42.5255 4.26342C43.4134 3.86567 44.4199 3.65021 45.5452 3.61704V0H50.2673V4.26342H54.2933V8.16885H50.2673V15.2962C50.2673 16.0339 50.4389 16.6089 50.7819 17.0211C51.125 17.4117 51.6194 17.607 52.2652 17.607C52.9917 17.607 53.6374 17.39 54.2025 16.9561L55.4436 20.536ZM40.4671 21.3822L40.4813 23.0834C41.0463 22.2372 41.1974 22.2175 42.2064 21.6751C43.4276 21.2953 43.1195 21.3852 43.4276 21.2953L44.3964 21.1544C44.9009 21.1544 45.3099 21.1001 45.8694 21.1001H48.6678C48.0728 20.8417 47.5566 20.4909 47.1192 20.0478C46.0699 18.9847 45.5452 17.4225 45.5452 15.3613V8.27439C45.1887 8.24742 44.9389 8.23394 44.7957 8.23394C43.4437 8.23394 42.3842 8.64618 41.6174 9.47065C40.8505 10.2734 40.4671 11.4885 40.4671 13.1157V21.3822ZM9.62595 3.61252C11.1395 3.61252 12.5117 3.99221 13.7427 4.7516C14.9939 5.48929 15.9726 6.54159 16.6789 7.90848C16.8804 8.29227 17.0532 8.69459 17.1972 9.11546C17.3423 8.68416 17.517 8.27099 17.7211 7.87594C18.4274 6.50904 19.3961 5.45675 20.6271 4.71905C21.8782 3.98136 23.2707 3.61252 24.8044 3.61252C26.8829 3.61252 28.5074 4.31766 29.6779 5.72795V3.87288H34.4V21.3822H29.8898V19.3644C29.2531 20.1906 28.4611 20.7921 27.5139 21.1688C28.3298 21.3443 29.1 21.636 29.8243 22.044C31.0956 22.7382 32.1046 23.758 32.8513 25.1032C33.6181 26.4267 34.0016 27.9997 34.0016 29.8223L21.954 32.3282C22.2971 33.1961 22.8318 33.847 23.5583 34.2809C24.305 34.7149 25.2131 34.9319 26.2826 34.9319C27.1302 34.9319 27.8769 34.8017 28.5226 34.5413C29.1886 34.2593 29.8041 33.8253 30.3691 33.2395L32.8816 36.1686C31.3479 38.0562 29.1079 39 26.1616 39C24.3252 39 22.7007 38.6203 21.288 37.8609C19.8754 37.0798 18.7857 36.0058 18.0189 34.6389C17.252 33.272 16.6487 31.8184 16.6487 30.0826C16.6487 28.3686 17.2419 26.7305 17.9886 25.3636C18.7554 23.975 19.7947 22.901 21.1064 22.1416C21.6296 21.8348 22.1777 21.5882 22.7508 21.4019C22.0026 21.2183 21.2947 20.9297 20.6271 20.536C19.3961 19.7983 18.4274 18.746 17.7211 17.3791C17.5183 16.9866 17.3446 16.5762 17.2 16.1479C17.0554 16.5762 16.8817 16.9866 16.6789 17.3791C15.9726 18.7243 14.9939 19.7766 13.7427 20.536C13.2219 20.8481 12.6758 21.0942 12.1044 21.2743C13.1377 21.5853 14.0269 22.1348 14.7719 22.9227C16.0231 24.2245 16.6487 26.1555 16.6487 28.7157V38.7396H11.9265V29.4968C11.9265 28.1082 11.644 27.0776 11.0789 26.405C10.5139 25.7107 9.69658 25.3636 8.62703 25.3636C7.4364 25.3636 6.48793 25.765 5.78162 26.5677C5.07532 27.3488 4.72216 28.5204 4.72216 30.0826V38.7396H0V27.696V21.2303V3.87288H4.51027V5.89068C5.68072 4.37191 7.38595 3.61252 9.62595 3.61252ZM4.72216 23.0436C5.30858 22.421 6.01488 21.9359 6.84108 21.5883C7.04707 21.4968 7.25753 21.4155 7.47245 21.3443C6.38252 21.0136 5.46576 20.4079 4.72216 19.5271V23.0436ZM8.80865 17.4768C10.0195 17.4768 11.0083 17.0428 11.7751 16.175C12.5622 15.2854 12.9557 14.1029 12.9557 12.6275C12.9557 11.1522 12.5622 9.98053 11.7751 9.11266C11.0083 8.22309 10.0195 7.7783 8.80865 7.7783C7.59784 7.7783 6.59892 8.22309 5.81189 9.11266C5.04505 9.98053 4.66162 11.1522 4.66162 12.6275C4.66162 14.1029 5.04505 15.2854 5.81189 16.175C6.59892 17.0428 7.59784 17.4768 8.80865 17.4768ZM25.6217 17.4768C26.8123 17.4768 27.8011 17.0428 28.5881 16.175C29.3752 15.2854 29.7687 14.1029 29.7687 12.6275C29.7687 11.1522 29.3752 9.98053 28.5881 9.11266C27.8011 8.22309 26.8123 7.7783 25.6217 7.7783C24.4108 7.7783 23.4119 8.22309 22.6249 9.11266C21.8379 9.98053 21.4444 11.1522 21.4444 12.6275C21.4444 14.1029 21.8379 15.2854 22.6249 16.175C23.4119 17.0428 24.4108 17.4768 25.6217 17.4768ZM25.5864 24.8103C24.3958 24.8103 23.4271 25.2225 22.6805 26.047C21.9338 26.8715 21.1468 28.0431 21.1064 29.4968L29.4307 27.8045C29.2088 26.8932 28.7547 26.1663 28.0686 25.6239C27.3825 25.0815 26.5551 24.8103 25.5864 24.8103Z" fill="#FF005C"/>
</svg>
