<svg width="85" height="86" viewBox="0 0 85 86" fill="none" xmlns="http://www.w3.org/2000/svg">
<g filter="url(#filter0_d_70_1329)">
<circle cx="42.5" cy="42.5663" r="32.5" fill="#FF005C"/>
</g>
<path d="M29 41.5663C28.1716 41.5663 27.5 42.2379 27.5 43.0663C27.5 43.8947 28.1716 44.5663 29 44.5663V41.5663ZM57.0792 44.1269C57.665 43.5412 57.665 42.5914 57.0792 42.0056L47.5332 32.4597C46.9474 31.8739 45.9977 31.8739 45.4119 32.4597C44.8261 33.0455 44.8261 33.9952 45.4119 34.581L53.8972 43.0663L45.4119 51.5516C44.8261 52.1374 44.8261 53.0871 45.4119 53.6729C45.9977 54.2587 46.9474 54.2587 47.5332 53.6729L57.0792 44.1269ZM29 44.5663H56.0185V41.5663H29V44.5663Z" fill="white"/>
<defs>
<filter id="filter0_d_70_1329" x="0" y="0.0662842" width="85" height="85" filterUnits="userSpaceOnUse" color-interpolation-filters="sRGB">
<feFlood flood-opacity="0" result="BackgroundImageFix"/>
<feColorMatrix in="SourceAlpha" type="matrix" values="0 0 0 0 0 0 0 0 0 0 0 0 0 0 0 0 0 0 127 0" result="hardAlpha"/>
<feOffset/>
<feGaussianBlur stdDeviation="5"/>
<feComposite in2="hardAlpha" operator="out"/>
<feColorMatrix type="matrix" values="0 0 0 0 0 0 0 0 0 0 0 0 0 0 0 0 0 0 0.25 0"/>
<feBlend mode="normal" in2="BackgroundImageFix" result="effect1_dropShadow_70_1329"/>
<feBlend mode="normal" in="SourceGraphic" in2="effect1_dropShadow_70_1329" result="shape"/>
</filter>
</defs>
</svg>
